# 3ds Max Wavefront OBJ Exporter v0.99 - (c)2007 guruware
# File Created: 23.11.2024 01:07:35

mtllib big_box1.mtl

#
# object Box001
#

v  -5.0000 -5.0000 5.0000
v  -5.0000 -5.0000 3.0000
v  -3.0000 -5.0000 3.0000
v  -3.0000 -5.0000 5.0000
v  -1.0000 -5.0000 3.0000
v  -1.0000 -5.0000 5.0000
v  1.0000 -5.0000 3.0000
v  1.0000 -5.0000 5.0000
v  3.0000 -5.0000 3.0000
v  3.0000 -5.0000 5.0000
v  5.0000 -5.0000 3.0000
v  5.0000 -5.0000 5.0000
v  -5.0000 -5.0000 1.0000
v  -3.0000 -5.0000 1.0000
v  -1.0000 -5.0000 1.0000
v  1.0000 -5.0000 1.0000
v  3.0000 -5.0000 1.0000
v  5.0000 -5.0000 1.0000
v  -5.0000 -5.0000 -1.0000
v  -3.0000 -5.0000 -1.0000
v  -1.0000 -5.0000 -1.0000
v  1.0000 -5.0000 -1.0000
v  3.0000 -5.0000 -1.0000
v  5.0000 -5.0000 -1.0000
v  -5.0000 -5.0000 -3.0000
v  -3.0000 -5.0000 -3.0000
v  -1.0000 -5.0000 -3.0000
v  1.0000 -5.0000 -3.0000
v  3.0000 -5.0000 -3.0000
v  5.0000 -5.0000 -3.0000
v  -5.0000 -5.0000 -5.0000
v  -3.0000 -5.0000 -5.0000
v  -1.0000 -5.0000 -5.0000
v  1.0000 -5.0000 -5.0000
v  3.0000 -5.0000 -5.0000
v  5.0000 -5.0000 -5.0000
v  -5.0000 5.0000 5.0000
v  -3.0000 5.0000 5.0000
v  -3.0000 5.0000 3.0000
v  -5.0000 5.0000 3.0000
v  -1.0000 5.0000 5.0000
v  -1.0000 5.0000 3.0000
v  1.0000 5.0000 5.0000
v  1.0000 5.0000 3.0000
v  3.0000 5.0000 5.0000
v  3.0000 5.0000 3.0000
v  5.0000 5.0000 5.0000
v  5.0000 5.0000 3.0000
v  -3.0000 5.0000 1.0000
v  -5.0000 5.0000 1.0000
v  -1.0000 5.0000 1.0000
v  1.0000 5.0000 1.0000
v  3.0000 5.0000 1.0000
v  5.0000 5.0000 1.0000
v  -3.0000 5.0000 -1.0000
v  -5.0000 5.0000 -1.0000
v  -1.0000 5.0000 -1.0000
v  1.0000 5.0000 -1.0000
v  3.0000 5.0000 -1.0000
v  5.0000 5.0000 -1.0000
v  -3.0000 5.0000 -3.0000
v  -5.0000 5.0000 -3.0000
v  -1.0000 5.0000 -3.0000
v  1.0000 5.0000 -3.0000
v  3.0000 5.0000 -3.0000
v  5.0000 5.0000 -3.0000
v  -3.0000 5.0000 -5.0000
v  -5.0000 5.0000 -5.0000
v  -1.0000 5.0000 -5.0000
v  1.0000 5.0000 -5.0000
v  3.0000 5.0000 -5.0000
v  5.0000 5.0000 -5.0000
v  -3.0000 -3.0000 5.0000
v  -5.0000 -3.0000 5.0000
v  -1.0000 -3.0000 5.0000
v  1.0000 -3.0000 5.0000
v  3.0000 -3.0000 5.0000
v  5.0000 -3.0000 5.0000
v  -3.0000 -1.0000 5.0000
v  -5.0000 -1.0000 5.0000
v  -1.0000 -1.0000 5.0000
v  1.0000 -1.0000 5.0000
v  3.0000 -1.0000 5.0000
v  5.0000 -1.0000 5.0000
v  -3.0000 1.0000 5.0000
v  -5.0000 1.0000 5.0000
v  -1.0000 1.0000 5.0000
v  1.0000 1.0000 5.0000
v  3.0000 1.0000 5.0000
v  5.0000 1.0000 5.0000
v  -3.0000 3.0000 5.0000
v  -5.0000 3.0000 5.0000
v  -1.0000 3.0000 5.0000
v  1.0000 3.0000 5.0000
v  3.0000 3.0000 5.0000
v  5.0000 3.0000 5.0000
v  5.0000 -3.0000 3.0000
v  5.0000 -3.0000 1.0000
v  5.0000 -3.0000 -1.0000
v  5.0000 -3.0000 -3.0000
v  5.0000 -3.0000 -5.0000
v  5.0000 -1.0000 3.0000
v  5.0000 -1.0000 1.0000
v  5.0000 -1.0000 -1.0000
v  5.0000 -1.0000 -3.0000
v  5.0000 -1.0000 -5.0000
v  5.0000 1.0000 3.0000
v  5.0000 1.0000 1.0000
v  5.0000 1.0000 -1.0000
v  5.0000 1.0000 -3.0000
v  5.0000 1.0000 -5.0000
v  5.0000 3.0000 3.0000
v  5.0000 3.0000 1.0000
v  5.0000 3.0000 -1.0000
v  5.0000 3.0000 -3.0000
v  5.0000 3.0000 -5.0000
v  3.0000 -3.0000 -5.0000
v  1.0000 -3.0000 -5.0000
v  -1.0000 -3.0000 -5.0000
v  -3.0000 -3.0000 -5.0000
v  -5.0000 -3.0000 -5.0000
v  3.0000 -1.0000 -5.0000
v  1.0000 -1.0000 -5.0000
v  -1.0000 -1.0000 -5.0000
v  -3.0000 -1.0000 -5.0000
v  -5.0000 -1.0000 -5.0000
v  3.0000 1.0000 -5.0000
v  1.0000 1.0000 -5.0000
v  -1.0000 1.0000 -5.0000
v  -3.0000 1.0000 -5.0000
v  -5.0000 1.0000 -5.0000
v  3.0000 3.0000 -5.0000
v  1.0000 3.0000 -5.0000
v  -1.0000 3.0000 -5.0000
v  -3.0000 3.0000 -5.0000
v  -5.0000 3.0000 -5.0000
v  -5.0000 -3.0000 -3.0000
v  -5.0000 -3.0000 -1.0000
v  -5.0000 -3.0000 1.0000
v  -5.0000 -3.0000 3.0000
v  -5.0000 -1.0000 -3.0000
v  -5.0000 -1.0000 -1.0000
v  -5.0000 -1.0000 1.0000
v  -5.0000 -1.0000 3.0000
v  -5.0000 1.0000 -3.0000
v  -5.0000 1.0000 -1.0000
v  -5.0000 1.0000 1.0000
v  -5.0000 1.0000 3.0000
v  -5.0000 3.0000 -3.0000
v  -5.0000 3.0000 -1.0000
v  -5.0000 3.0000 1.0000
v  -5.0000 3.0000 3.0000
# 152 vertices

vn -0.5774 -0.5774 0.5774
vn -0.7071 -0.7071 -0.0000
vn 0.0000 -1.0000 -0.0000
vn 0.0000 -0.7071 0.7071
vn 0.7071 -0.7071 -0.0000
vn 0.5774 -0.5774 0.5774
vn -0.5774 -0.5774 -0.5774
vn 0.0000 -0.7071 -0.7071
vn 0.5774 -0.5774 -0.5774
vn -0.5774 0.5774 0.5774
vn 0.0000 0.7071 0.7071
vn 0.0000 1.0000 -0.0000
vn -0.7071 0.7071 -0.0000
vn 0.5774 0.5774 0.5774
vn 0.7071 0.7071 -0.0000
vn 0.0000 0.7071 -0.7071
vn -0.5774 0.5774 -0.5774
vn 0.5774 0.5774 -0.5774
vn 0.0000 0.0000 1.0000
vn -0.7071 0.0000 0.7071
vn 0.7071 0.0000 0.7071
vn 1.0000 0.0000 -0.0000
vn 0.7071 0.0000 -0.7071
vn 0.0000 0.0000 -1.0000
vn -0.7071 0.0000 -0.7071
vn -1.0000 0.0000 -0.0000
# 26 vertex normals

vt 1.0000 0.0000 0.0000
vt 1.0000 0.2000 0.0000
vt 0.8000 0.2000 0.0000
vt 0.8000 0.0000 0.0000
vt 0.6000 0.2000 0.0000
vt 0.6000 0.0000 0.0000
vt 0.4000 0.2000 0.0000
vt 0.4000 0.0000 0.0000
vt 0.2000 0.2000 0.0000
vt 0.2000 0.0000 0.0000
vt 0.0000 0.2000 0.0000
vt 0.0000 0.0000 0.0000
vt 1.0000 0.4000 0.0000
vt 0.8000 0.4000 0.0000
vt 0.6000 0.4000 0.0000
vt 0.4000 0.4000 0.0000
vt 0.2000 0.4000 0.0000
vt 0.0000 0.4000 0.0000
vt 1.0000 0.6000 0.0000
vt 0.8000 0.6000 0.0000
vt 0.6000 0.6000 0.0000
vt 0.4000 0.6000 0.0000
vt 0.2000 0.6000 0.0000
vt 0.0000 0.6000 0.0000
vt 1.0000 0.8000 0.0000
vt 0.8000 0.8000 0.0000
vt 0.6000 0.8000 0.0000
vt 0.4000 0.8000 0.0000
vt 0.2000 0.8000 0.0000
vt 0.0000 0.8000 0.0000
vt 1.0000 1.0000 0.0000
vt 0.8000 1.0000 0.0000
vt 0.6000 1.0000 0.0000
vt 0.4000 1.0000 0.0000
vt 0.2000 1.0000 0.0000
vt 0.0000 1.0000 0.0000
# 36 texture coords

o Box001
g Box001
usemtl wire_227153153
s 2
f 1/1/1 2/2/2 3/3/3 4/4/4 
f 4/4/4 3/3/3 5/5/3 6/6/4 
f 6/6/4 5/5/3 7/7/3 8/8/4 
f 8/8/4 7/7/3 9/9/3 10/10/4 
f 10/10/4 9/9/3 11/11/5 12/12/6 
f 2/2/2 13/13/2 14/14/3 3/3/3 
f 3/3/3 14/14/3 15/15/3 5/5/3 
f 5/5/3 15/15/3 16/16/3 7/7/3 
f 7/7/3 16/16/3 17/17/3 9/9/3 
f 9/9/3 17/17/3 18/18/5 11/11/5 
f 13/13/2 19/19/2 20/20/3 14/14/3 
f 14/14/3 20/20/3 21/21/3 15/15/3 
f 15/15/3 21/21/3 22/22/3 16/16/3 
f 16/16/3 22/22/3 23/23/3 17/17/3 
f 17/17/3 23/23/3 24/24/5 18/18/5 
f 19/19/2 25/25/2 26/26/3 20/20/3 
f 20/20/3 26/26/3 27/27/3 21/21/3 
f 21/21/3 27/27/3 28/28/3 22/22/3 
f 22/22/3 28/28/3 29/29/3 23/23/3 
f 23/23/3 29/29/3 30/30/5 24/24/5 
f 25/25/2 31/31/7 32/32/8 26/26/3 
f 26/26/3 32/32/8 33/33/8 27/27/3 
f 27/27/3 33/33/8 34/34/8 28/28/3 
f 28/28/3 34/34/8 35/35/8 29/29/3 
f 29/29/3 35/35/8 36/36/9 30/30/5 
s 4
f 37/12/10 38/10/11 39/9/12 40/11/13 
f 38/10/11 41/8/11 42/7/12 39/9/12 
f 41/8/11 43/6/11 44/5/12 42/7/12 
f 43/6/11 45/4/11 46/3/12 44/5/12 
f 45/4/11 47/1/14 48/2/15 46/3/12 
f 40/11/13 39/9/12 49/17/12 50/18/13 
f 39/9/12 42/7/12 51/16/12 49/17/12 
f 42/7/12 44/5/12 52/15/12 51/16/12 
f 44/5/12 46/3/12 53/14/12 52/15/12 
f 46/3/12 48/2/15 54/13/15 53/14/12 
f 50/18/13 49/17/12 55/23/12 56/24/13 
f 49/17/12 51/16/12 57/22/12 55/23/12 
f 51/16/12 52/15/12 58/21/12 57/22/12 
f 52/15/12 53/14/12 59/20/12 58/21/12 
f 53/14/12 54/13/15 60/19/15 59/20/12 
f 56/24/13 55/23/12 61/29/12 62/30/13 
f 55/23/12 57/22/12 63/28/12 61/29/12 
f 57/22/12 58/21/12 64/27/12 63/28/12 
f 58/21/12 59/20/12 65/26/12 64/27/12 
f 59/20/12 60/19/15 66/25/15 65/26/12 
f 62/30/13 61/29/12 67/35/16 68/36/17 
f 61/29/12 63/28/12 69/34/16 67/35/16 
f 63/28/12 64/27/12 70/33/16 69/34/16 
f 64/27/12 65/26/12 71/32/16 70/33/16 
f 65/26/12 66/25/15 72/31/18 71/32/16 
s 8
f 1/12/1 4/10/4 73/9/19 74/11/20 
f 4/10/4 6/8/4 75/7/19 73/9/19 
f 6/8/4 8/6/4 76/5/19 75/7/19 
f 8/6/4 10/4/4 77/3/19 76/5/19 
f 10/4/4 12/1/6 78/2/21 77/3/19 
f 74/11/20 73/9/19 79/17/19 80/18/20 
f 73/9/19 75/7/19 81/16/19 79/17/19 
f 75/7/19 76/5/19 82/15/19 81/16/19 
f 76/5/19 77/3/19 83/14/19 82/15/19 
f 77/3/19 78/2/21 84/13/21 83/14/19 
f 80/18/20 79/17/19 85/23/19 86/24/20 
f 79/17/19 81/16/19 87/22/19 85/23/19 
f 81/16/19 82/15/19 88/21/19 87/22/19 
f 82/15/19 83/14/19 89/20/19 88/21/19 
f 83/14/19 84/13/21 90/19/21 89/20/19 
f 86/24/20 85/23/19 91/29/19 92/30/20 
f 85/23/19 87/22/19 93/28/19 91/29/19 
f 87/22/19 88/21/19 94/27/19 93/28/19 
f 88/21/19 89/20/19 95/26/19 94/27/19 
f 89/20/19 90/19/21 96/25/21 95/26/19 
f 92/30/20 91/29/19 38/35/11 37/36/10 
f 91/29/19 93/28/19 41/34/11 38/35/11 
f 93/28/19 94/27/19 43/33/11 41/34/11 
f 94/27/19 95/26/19 45/32/11 43/33/11 
f 95/26/19 96/25/21 47/31/14 45/32/11 
s 16
f 12/12/6 11/10/5 97/9/22 78/11/21 
f 11/10/5 18/8/5 98/7/22 97/9/22 
f 18/8/5 24/6/5 99/5/22 98/7/22 
f 24/6/5 30/4/5 100/3/22 99/5/22 
f 30/4/5 36/1/9 101/2/23 100/3/22 
f 78/11/21 97/9/22 102/17/22 84/18/21 
f 97/9/22 98/7/22 103/16/22 102/17/22 
f 98/7/22 99/5/22 104/15/22 103/16/22 
f 99/5/22 100/3/22 105/14/22 104/15/22 
f 100/3/22 101/2/23 106/13/23 105/14/22 
f 84/18/21 102/17/22 107/23/22 90/24/21 
f 102/17/22 103/16/22 108/22/22 107/23/22 
f 103/16/22 104/15/22 109/21/22 108/22/22 
f 104/15/22 105/14/22 110/20/22 109/21/22 
f 105/14/22 106/13/23 111/19/23 110/20/22 
f 90/24/21 107/23/22 112/29/22 96/30/21 
f 107/23/22 108/22/22 113/28/22 112/29/22 
f 108/22/22 109/21/22 114/27/22 113/28/22 
f 109/21/22 110/20/22 115/26/22 114/27/22 
f 110/20/22 111/19/23 116/25/23 115/26/22 
f 96/30/21 112/29/22 48/35/15 47/36/14 
f 112/29/22 113/28/22 54/34/15 48/35/15 
f 113/28/22 114/27/22 60/33/15 54/34/15 
f 114/27/22 115/26/22 66/32/15 60/33/15 
f 115/26/22 116/25/23 72/31/18 66/32/15 
s 32
f 36/12/9 35/10/8 117/9/24 101/11/23 
f 35/10/8 34/8/8 118/7/24 117/9/24 
f 34/8/8 33/6/8 119/5/24 118/7/24 
f 33/6/8 32/4/8 120/3/24 119/5/24 
f 32/4/8 31/1/7 121/2/25 120/3/24 
f 101/11/23 117/9/24 122/17/24 106/18/23 
f 117/9/24 118/7/24 123/16/24 122/17/24 
f 118/7/24 119/5/24 124/15/24 123/16/24 
f 119/5/24 120/3/24 125/14/24 124/15/24 
f 120/3/24 121/2/25 126/13/25 125/14/24 
f 106/18/23 122/17/24 127/23/24 111/24/23 
f 122/17/24 123/16/24 128/22/24 127/23/24 
f 123/16/24 124/15/24 129/21/24 128/22/24 
f 124/15/24 125/14/24 130/20/24 129/21/24 
f 125/14/24 126/13/25 131/19/25 130/20/24 
f 111/24/23 127/23/24 132/29/24 116/30/23 
f 127/23/24 128/22/24 133/28/24 132/29/24 
f 128/22/24 129/21/24 134/27/24 133/28/24 
f 129/21/24 130/20/24 135/26/24 134/27/24 
f 130/20/24 131/19/25 136/25/25 135/26/24 
f 116/30/23 132/29/24 71/35/16 72/36/18 
f 132/29/24 133/28/24 70/34/16 71/35/16 
f 133/28/24 134/27/24 69/33/16 70/34/16 
f 134/27/24 135/26/24 67/32/16 69/33/16 
f 135/26/24 136/25/25 68/31/17 67/32/16 
s 64
f 31/12/7 25/10/2 137/9/26 121/11/25 
f 25/10/2 19/8/2 138/7/26 137/9/26 
f 19/8/2 13/6/2 139/5/26 138/7/26 
f 13/6/2 2/4/2 140/3/26 139/5/26 
f 2/4/2 1/1/1 74/2/20 140/3/26 
f 121/11/25 137/9/26 141/17/26 126/18/25 
f 137/9/26 138/7/26 142/16/26 141/17/26 
f 138/7/26 139/5/26 143/15/26 142/16/26 
f 139/5/26 140/3/26 144/14/26 143/15/26 
f 140/3/26 74/2/20 80/13/20 144/14/26 
f 126/18/25 141/17/26 145/23/26 131/24/25 
f 141/17/26 142/16/26 146/22/26 145/23/26 
f 142/16/26 143/15/26 147/21/26 146/22/26 
f 143/15/26 144/14/26 148/20/26 147/21/26 
f 144/14/26 80/13/20 86/19/20 148/20/26 
f 131/24/25 145/23/26 149/29/26 136/30/25 
f 145/23/26 146/22/26 150/28/26 149/29/26 
f 146/22/26 147/21/26 151/27/26 150/28/26 
f 147/21/26 148/20/26 152/26/26 151/27/26 
f 148/20/26 86/19/20 92/25/20 152/26/26 
f 136/30/25 149/29/26 62/35/13 68/36/17 
f 149/29/26 150/28/26 56/34/13 62/35/13 
f 150/28/26 151/27/26 50/33/13 56/34/13 
f 151/27/26 152/26/26 40/32/13 50/33/13 
f 152/26/26 92/25/20 37/31/10 40/32/13 
# 150 polygons

