# 3ds Max Wavefront OBJ Exporter v0.99 - (c)2007 guruware
# File Created: 21.11.2024 14:35:39

mtllib body.mtl

#
# object Box007
#

v  -0.6015 6.6042 2.6678
v  -0.6015 8.6962 2.6678
v  0.6015 8.6962 2.6678
v  0.6015 6.6042 2.6678
v  -0.6015 6.6042 3.3509
v  0.6015 6.6042 3.3509
v  0.6015 8.6962 3.3509
v  -0.6015 8.6962 3.3509
v  -3.1893 5.1937 2.6503
v  -3.1893 5.1937 -2.6503
v  3.1893 5.1937 -2.6503
v  3.1893 5.1937 2.6503
v  -3.1893 9.8654 2.6503
v  3.1893 9.8654 2.6503
v  3.1893 9.8654 -2.6503
v  -3.1893 9.8654 -2.6503
v  -5.0000 -9.8654 5.0000
v  -5.0000 -9.8654 -5.0000
v  5.0000 -9.8654 -5.0000
v  5.0000 -9.8654 5.0000
v  -5.0000 5.1346 5.0000
v  5.0000 5.1346 5.0000
v  5.0000 5.1346 -5.0000
v  -5.0000 5.1346 -5.0000
# 24 vertices

vn 0.0000 0.0000 -1.0000
vn 0.0000 -0.0000 1.0000
vn 0.0000 -1.0000 -0.0000
vn 1.0000 0.0000 -0.0000
vn 0.0000 1.0000 0.0000
vn -1.0000 0.0000 -0.0000
vn -0.0000 1.0000 0.0000
vn 0.0000 0.0000 1.0000
vn 1.0000 0.0000 0.0000
vn 1.0000 -0.0000 0.0000
vn -0.0000 -0.0000 -1.0000
vn -1.0000 -0.0000 -0.0000
vn 0.0000 -0.0000 -1.0000
# 13 vertex normals

vt 1.0000 0.0000 0.0000
vt 1.0000 1.0000 0.0000
vt 0.0000 1.0000 0.0000
vt 0.0000 0.0000 0.0000
# 4 texture coords

o Box007
g Box007
usemtl wire_027177148
s 2
f 1/1/1 2/2/1 3/3/1 
f 3/3/1 4/4/1 1/1/1 
s 4
f 5/4/2 6/1/2 7/2/2 
f 7/2/2 8/3/2 5/4/2 
s 8
f 1/4/3 4/1/3 6/2/3 
f 6/2/3 5/3/3 1/4/3 
s 16
f 4/4/4 3/1/4 7/2/4 
f 7/2/4 6/3/4 4/4/4 
s 32
f 3/4/5 2/1/5 8/2/5 
f 8/2/5 7/3/5 3/4/5 
s 64
f 2/4/6 1/1/6 5/2/6 
f 5/2/6 8/3/6 2/4/6 
s 2
f 9/1/3 10/2/3 11/3/3 
f 11/3/3 12/4/3 9/1/3 
s 4
f 13/4/7 14/1/7 15/2/7 
f 15/2/7 16/3/5 13/4/7 
s 8
f 9/4/8 12/1/8 14/2/8 
f 14/2/8 13/3/8 9/4/8 
s 16
f 12/4/9 11/1/10 15/2/10 
f 15/2/10 14/3/9 12/4/9 
s 32
f 11/4/11 10/1/11 16/2/11 
f 16/2/11 15/3/1 11/4/11 
s 64
f 10/4/12 9/1/12 13/2/12 
f 13/2/12 16/3/12 10/4/12 
s 2
f 17/1/3 18/2/3 19/3/3 
f 19/3/3 20/4/3 17/1/3 
s 4
f 21/4/5 22/1/5 23/2/5 
f 23/2/5 24/3/5 21/4/5 
s 8
f 17/4/8 20/1/8 22/2/8 
f 22/2/8 21/3/8 17/4/8 
s 16
f 20/4/9 19/1/9 23/2/9 
f 23/2/9 22/3/9 20/4/9 
s 32
f 19/4/13 18/1/13 24/2/13 
f 24/2/13 23/3/13 19/4/13 
s 64
f 18/4/12 17/1/12 21/2/12 
f 21/2/12 24/3/12 18/4/12 
# 36 faces

