# 3ds Max Wavefront OBJ Exporter v0.99 - (c)2007 guruware
# File Created: 28.11.2024 21:43:44

mtllib rr2.mtl

#
# object Box001
#

v  -3.2037 0.0000 0.7222
v  -3.2037 0.0000 -4.2778
v  3.7963 0.0000 -4.2778
v  3.7963 0.0000 0.7222
v  -3.2037 1.0000 0.7222
v  3.7963 1.0000 0.7222
v  3.7963 1.0000 -4.2778
v  -3.2037 1.0000 -4.2778
# 8 vertices

vn 0.0000 -1.0000 -0.0000
vn 0.0000 1.0000 -0.0000
vn 0.0000 0.0000 1.0000
vn 1.0000 0.0000 -0.0000
vn 0.0000 0.0000 -1.0000
vn -1.0000 0.0000 -0.0000
# 6 vertex normals

vt 0.5479 0.4563 0.0000
vt 0.5173 0.8258 0.0000
vt 0.0000 0.7830 0.0000
vt 0.0306 0.4135 0.0000
vt 0.0000 0.0428 0.0000
vt 0.5173 0.0000 0.0000
vt 0.5479 0.3695 0.0000
vt 0.0306 0.4123 0.0000
vt 0.4507 0.9297 0.0000
vt 0.9431 0.7655 0.0000
vt 0.9666 0.8359 0.0000
vt 0.4742 1.0000 0.0000
vt 0.6229 0.1580 0.0000
vt 0.9777 0.0505 0.0000
vt 0.9992 0.1215 0.0000
vt 0.6444 0.2289 0.0000
vt 0.3092 0.8968 0.0000
vt 0.8016 0.7326 0.0000
vt 0.8250 0.8030 0.0000
vt 0.3326 0.9671 0.0000
vt 0.5277 0.1074 0.0000
vt 0.8826 0.0000 0.0000
vt 0.9041 0.0710 0.0000
vt 0.5492 0.1784 0.0000
# 24 texture coords

o Box001
g Box001
usemtl wire_086086086
s 2
f 1/1/1 2/2/1 3/3/1 
f 3/3/1 4/4/1 1/1/1 
s 4
f 5/5/2 6/6/2 7/7/2 
f 7/7/2 8/8/2 5/5/2 
s 8
f 1/9/3 4/10/3 6/11/3 
f 6/11/3 5/12/3 1/9/3 
s 16
f 4/13/4 3/14/4 7/15/4 
f 7/15/4 6/16/4 4/13/4 
s 32
f 3/17/5 2/18/5 8/19/5 
f 8/19/5 7/20/5 3/17/5 
s 64
f 2/21/6 1/22/6 5/23/6 
f 5/23/6 8/24/6 2/21/6 
# 12 faces

