# 3ds Max Wavefront OBJ Exporter v0.99 - (c)2007 guruware
# File Created: 14.12.2024 16:13:53

mtllib booster.mtl

#
# object Box001
#

v  0.0083 0.0102 0.6612
v  -0.0541 0.1670 0.6612
v  0.0084 0.1670 0.6612
v  0.0084 0.0102 0.6612
v  0.0068 0.3238 0.6612
v  0.0084 0.3238 0.6612
v  0.0084 0.1601 4.8864
v  0.0080 0.1739 4.8864
v  0.0021 0.1670 4.8864
v  0.0084 0.1739 4.8864
v  0.0086 0.0102 0.6612
v  0.0710 0.1670 0.6612
v  0.0101 0.3238 0.6612
v  0.0147 0.1670 4.8864
v  0.0089 0.1739 4.8864
# 15 vertices

vn 0.0000 0.0000 -1.0000
vn 0.0000 -0.9888 0.1492
vn -0.3420 0.9368 0.0743
vn -0.5589 0.8195 0.1263
vn -0.9753 -0.0053 0.2210
vn -0.9778 -0.0104 0.2091
vn -0.5494 -0.8262 0.1249
vn -0.3266 -0.9425 0.0711
vn -0.0000 0.9888 0.1492
vn 0.0000 0.9888 0.1492
vn -0.0000 -0.0000 1.0000
vn -0.0000 0.0000 1.0000
vn 0.0000 0.0000 1.0000
vn 0.0000 -0.0000 1.0000
vn 0.9497 -0.0420 0.3104
vn 0.9765 -0.0071 0.2153
vn 0.5556 0.8227 0.1201
vn 0.2925 0.9453 0.1440
vn 0.3266 -0.9425 0.0711
vn 0.5494 -0.8262 0.1249
# 20 vertex normals

vt 0.6624 0.4912 0.0000
vt 0.7790 0.6158 0.0000
vt 0.5913 0.6158 0.0000
vt 0.5913 0.4912 0.0000
vt 0.6624 0.7405 0.0000
vt 0.5913 0.7405 0.0000
vt 0.8666 0.0000 0.0000
vt 0.9202 0.7949 0.0000
vt 0.8662 0.7986 0.0000
vt 0.7957 0.0048 0.0000
vt 0.4845 0.8008 0.0000
vt 0.3419 0.0167 0.0000
vt 0.5118 0.0000 0.0000
vt 0.5063 0.7991 0.0000
vt 0.6814 0.0189 0.0000
vt 0.5281 0.8010 0.0000
vt 0.7919 0.0000 0.0000
vt 0.8539 0.7945 0.0000
vt 0.8000 0.7999 0.0000
vt 0.7211 0.0070 0.0000
vt 0.3574 0.7693 0.0000
vt 0.2874 0.7816 0.0000
vt 0.2658 0.6589 0.0000
vt 0.4507 0.6264 0.0000
vt 0.3142 0.5239 0.0000
vt 0.2442 0.5362 0.0000
vt 0.7408 0.3234 0.0000
vt 0.7512 0.3426 0.0000
vt 0.7395 0.3611 0.0000
vt 0.6853 0.3591 0.0000
vt 0.6312 0.3571 0.0000
vt 0.6208 0.3379 0.0000
vt 0.6326 0.3194 0.0000
vt 0.6867 0.3214 0.0000
vt 0.1635 1.0000 0.0000
vt 0.1517 0.9299 0.0000
vt 0.9401 0.8141 0.0000
vt 0.9492 0.8676 0.0000
vt 0.1698 0.7991 0.0000
vt 0.1698 0.0000 0.0000
vt 0.3395 0.0179 0.0000
vt 0.1916 0.8010 0.0000
vt 0.1480 0.8008 0.0000
vt 0.0000 0.0178 0.0000
vt 0.7895 0.7556 0.0000
vt 0.8006 0.8258 0.0000
vt 0.0136 0.9500 0.0000
vt 0.0051 0.8965 0.0000
# 48 texture coords

o Box001
g Box001
usemtl wire_255255255
s 2
f 1/1/1 2/2/1 3/3/1 
f 3/3/1 4/4/1 1/1/1 
f 5/5/1 6/6/1 3/3/1 
f 3/3/1 2/2/1 5/5/1 
s 8
f 4/7/2 7/8/2 7/9/2 
f 7/9/2 1/10/2 4/7/2 
s 64
f 8/11/3 5/12/4 2/13/5 
f 2/13/5 9/14/6 8/11/3 
f 2/13/5 1/15/7 7/16/8 
f 7/16/8 9/14/6 2/13/5 
s 32
f 5/17/9 8/18/9 10/19/9 
f 10/19/9 6/20/10 5/17/9 
s 2
f 11/21/1 4/22/1 3/23/1 
f 3/23/1 12/24/1 11/21/1 
f 13/25/1 12/24/1 3/23/1 
f 3/23/1 6/26/1 13/25/1 
s 4
f 7/27/11 14/28/12 15/29/13 
f 7/27/11 15/29/13 10/30/11 
f 8/31/12 9/32/13 7/33/14 
f 10/30/11 8/31/12 7/33/14 
f 10/30/11 7/33/14 7/34/14 
f 7/27/11 10/30/11 7/34/14 
s 8
f 4/35/2 11/36/2 7/37/2 
f 7/37/2 7/38/2 4/35/2 
s 64
f 14/39/15 12/40/16 13/41/17 
f 13/41/17 15/42/18 14/39/15 
f 12/40/16 14/39/15 7/43/19 
f 7/43/19 11/44/20 12/40/16 
s 32
f 13/45/10 6/46/10 10/47/9 
f 10/47/9 15/48/10 13/45/10 
# 30 faces

