# Blender 4.2.3 LTS
# www.blender.org
mtllib straight_road.mtl
o Cube
v -1.000000 -0.100000 1.000000
v -1.000000 0.100000 1.000000
v -1.000000 -0.100000 -1.000000
v -1.000000 0.100000 -1.000000
v 1.000000 -0.100000 1.000000
v 1.000000 0.100000 1.000000
v 1.000000 -0.100000 -1.000000
v 1.000000 0.100000 -1.000000
v 0.866667 -0.100000 -1.000000
v -0.866667 -0.100000 -1.000000
v -0.866667 0.100000 -1.000000
v 0.866667 0.100000 -1.000000
v -0.866667 -0.100000 1.000000
v 0.866667 -0.100000 1.000000
v 0.866667 0.100000 1.000000
v -0.866667 0.100000 1.000000
v -1.000000 0.300000 1.000000
v -1.000000 0.300000 -1.000000
v 0.866667 0.300000 -1.000000
v 1.000000 0.300000 -1.000000
v 1.000000 0.300000 1.000000
v -0.866667 0.300000 1.000000
v -0.866667 0.300000 -1.000000
v 0.866667 0.300000 1.000000
vn -1.0000 -0.0000 -0.0000
vn -0.0000 -0.0000 -1.0000
vn 1.0000 -0.0000 -0.0000
vn -0.0000 -0.0000 1.0000
vn -0.0000 -1.0000 -0.0000
vn -0.0000 1.0000 -0.0000
vt 0.000000 0.504481
vt 0.000000 0.257305
vt 0.254481 0.257305
vt 0.254481 0.504481
vt 0.492296 0.504481
vt 0.492296 0.257305
vt 0.508963 0.257305
vt 0.508963 0.504481
vt 0.000000 1.000000
vt 0.000000 0.754481
vt 0.254481 0.754481
vt 0.254481 1.000000
vt 0.492296 1.000000
vt 0.492296 0.754481
vt 0.508963 0.754481
vt 0.508963 1.000000
vt 0.763444 0.240638
vt 0.763444 0.257305
vt 0.508963 0.257305
vt 0.508963 0.240638
vt 0.763444 0.257305
vt 0.763444 0.504482
vt 0.508963 0.504482
vt 0.508963 0.257305
vt 0.984592 0.257305
vt 0.763444 0.257305
vt 0.763444 0.000000
vt 0.984592 0.000000
vt 0.763444 0.000000
vt 0.763444 0.016667
vt 0.508963 0.016667
vt 0.508963 0.000000
vt 0.250000 1.000000
vt 0.250000 0.754481
vt 0.266667 0.754481
vt 0.266667 1.000000
vt 0.271148 1.000000
vt 0.271148 0.754481
vt 0.271148 0.257305
vt 0.271148 0.504481
vt 0.780111 0.504481
vt 0.763444 0.504481
vt 0.780111 0.257305
vt 0.780111 0.754482
vt 0.763444 0.754482
vt 0.763444 0.504481
vt 0.250000 0.504481
vt 0.266667 0.504481
vt 0.492296 0.000000
vt 0.508963 0.000000
vt 0.254481 0.000000
vt 0.271148 0.000000
vt 0.763444 0.504482
vt 0.763444 0.754482
vt 0.508963 0.754482
vt 0.508963 0.504482
vt 0.000000 0.000000
s 0
usemtl Material
f 1/1/1 2/2/1 4/3/1 3/4/1
f 9/5/2 12/6/2 8/7/2 7/8/2
f 7/9/3 8/10/3 6/11/3 5/12/3
f 13/13/4 16/14/4 2/15/4 1/16/4
f 9/17/5 7/18/5 5/19/5 14/20/5
f 12/21/1 15/22/1 24/23/1 19/24/1
f 2/15/4 16/14/4 22/5/4 17/8/4
f 12/25/6 11/26/6 16/27/6 15/28/6
f 3/29/5 10/30/5 13/31/5 1/32/5
f 10/30/5 9/17/5 14/20/5 13/31/5
f 5/33/4 6/34/4 15/35/4 14/36/4
f 14/37/4 15/38/4 16/14/4 13/13/4
f 3/4/2 4/3/2 11/39/2 10/40/2
f 10/40/2 11/39/2 12/6/2 9/5/2
f 23/41/6 18/42/6 17/26/6 22/43/6
f 20/44/6 19/45/6 24/46/6 21/41/6
f 15/35/4 6/34/4 21/47/4 24/48/4
f 8/7/2 12/6/2 19/49/2 20/50/2
f 11/39/2 4/3/2 18/51/2 23/52/2
f 16/53/3 11/54/3 23/55/3 22/56/3
f 6/11/3 8/10/3 20/1/3 21/4/3
f 4/3/1 2/2/1 17/57/1 18/51/1
